<svg width="219" height="212" viewBox="0 0 219 212" fill="none" xmlns="http://www.w3.org/2000/svg">
<path d="M109.184 211.768C169.484 211.768 218.367 183.545 218.367 148.731C218.367 113.916 169.484 85.6931 109.184 85.6931C48.8832 85.6931 0 113.916 0 148.731C0 183.545 48.8832 211.768 109.184 211.768Z" fill="#F0F0F0"/>
<path d="M171.887 170.603C164.728 166.47 164.728 159.769 171.887 155.635C179.047 151.502 190.655 151.502 197.815 155.635C204.975 159.769 204.975 166.47 197.815 170.603C190.655 174.737 179.047 174.737 171.887 170.603Z" fill="#E0E0E0"/>
<path d="M26.266 171.178L7.43305 160.306C6.37184 159.695 6.37184 158.698 7.43305 158.087L116.978 94.8408C117.573 94.5391 118.232 94.3819 118.899 94.3819C119.566 94.3819 120.224 94.5391 120.82 94.8408L139.657 105.712C140.719 106.324 140.719 107.32 139.657 107.932L30.1122 171.178C29.5161 171.48 28.8573 171.637 28.1891 171.637C27.5209 171.637 26.8621 171.48 26.266 171.178Z" fill="#E0E0E0"/>
<path d="M93.9606 151.798L110.152 142.437C111.82 141.474 112.655 140.213 112.655 138.948C112.655 137.683 112.655 136.696 112.655 136.696L95.8606 127.224C95.3915 126.92 95.0008 126.51 94.7205 126.027C94.4403 125.544 94.2783 125.001 94.2479 124.443V104.475L65.98 120.815V140.774C66.0126 141.331 66.1755 141.873 66.4556 142.356C66.7356 142.839 67.1251 143.249 67.5927 143.554L81.8842 151.784C85.2115 153.726 90.6241 153.726 93.9606 151.798Z" fill="#1D1465"/>
<g opacity="0.6">
<path d="M93.9606 151.798L110.152 142.437C111.82 141.474 112.655 140.213 112.655 138.948C112.655 137.683 112.655 136.696 112.655 136.696L95.8606 127.224C95.3915 126.92 95.0008 126.51 94.7205 126.027C94.4403 125.544 94.2783 125.001 94.2479 124.443V104.475L65.98 120.815V140.774C66.0126 141.331 66.1755 141.873 66.4556 142.356C66.7356 142.839 67.1251 143.249 67.5927 143.554L81.8842 151.784C85.2115 153.726 90.6241 153.726 93.9606 151.798Z" fill="black"/>
</g>
<path opacity="0.3" d="M72.7597 144.31V146.553L67.5788 143.564C67.1113 143.259 66.7222 142.848 66.4428 142.365C66.1634 141.882 66.0017 141.34 65.9708 140.783V120.815L71.3556 117.705C71.4668 119.072 71.5873 120.486 71.7031 121.876L67.9171 124.054V139.648C67.9471 140.206 68.1089 140.749 68.3892 141.232C68.6695 141.715 69.0604 142.125 69.5297 142.428L72.7597 144.31Z" fill="black"/>
<path d="M67.9171 139.652C67.949 140.21 68.1115 140.752 68.3917 141.235C68.6718 141.718 69.0617 142.128 69.5298 142.433L81.8657 149.542C85.2022 151.465 90.6148 151.469 93.956 149.542L110.175 140.181C113.516 138.253 113.516 135.13 110.175 133.202L97.8301 126.093C97.3632 125.788 96.9744 125.377 96.6951 124.894C96.4158 124.411 96.2538 123.87 96.2221 123.313V107.714L67.9542 124.054L67.9171 139.652Z" fill="#1D1465"/>
<path opacity="0.3" d="M67.9171 139.652C67.949 140.21 68.1115 140.752 68.3917 141.235C68.6718 141.718 69.0617 142.128 69.5298 142.433L81.8657 149.542C85.2022 151.465 90.6148 151.469 93.956 149.542L110.175 140.181C113.516 138.253 113.516 135.13 110.175 133.202L97.8301 126.093C97.3632 125.788 96.9744 125.377 96.6951 124.894C96.4158 124.411 96.2538 123.87 96.2221 123.313V107.714L67.9542 124.054L67.9171 139.652Z" fill="black"/>
<path opacity="0.5" d="M101.097 127.998L97.8115 126.102C97.3446 125.797 96.9558 125.386 96.6765 124.904C96.3972 124.421 96.2352 123.879 96.2035 123.322V107.714L67.9356 124.054V139.652C67.9674 140.21 68.13 140.752 68.4102 141.235C68.6903 141.718 69.0802 142.128 69.5483 142.433L72.7921 144.286L101.097 127.998Z" fill="black"/>
<path d="M112.659 136.7V138.953C112.659 140.218 111.82 141.474 110.157 142.442L93.9375 151.798C92.1625 152.746 90.18 153.238 88.168 153.23V150.987C90.18 150.995 92.1625 150.503 93.9375 149.555L110.157 140.19C111.82 139.231 112.659 137.966 112.659 136.7Z" fill="#1D1465"/>
<path opacity="0.5" d="M112.659 136.7V138.953C112.659 140.218 111.82 141.474 110.157 142.442L93.9375 151.798C92.1625 152.746 90.18 153.238 88.168 153.23V150.987C90.18 150.995 92.1625 150.503 93.9375 149.555L110.157 140.19C111.82 139.231 112.659 137.966 112.659 136.7Z" fill="black"/>
<path d="M22.5031 159.037C23.1142 159.332 23.7861 159.479 24.4647 159.467C25.1432 159.455 25.8094 159.284 26.4096 158.967L135.774 95.8279C136.36 95.4454 136.848 94.9302 137.199 94.3239C137.549 93.7177 137.751 93.0375 137.79 92.3384V3.86453C137.769 3.18442 137.588 2.51888 137.261 1.92215C136.934 1.32541 136.47 0.814373 135.908 0.430674C135.298 0.135184 134.627 -0.0121056 133.949 0.000777999C133.271 0.0136616 132.605 0.186355 132.006 0.504819L22.6421 63.6627C22.0578 64.0476 21.5726 64.5652 21.2263 65.1732C20.8801 65.7812 20.6824 66.4625 20.6495 67.1615V155.621C20.6701 156.296 20.8486 156.956 21.1705 157.549C21.4924 158.142 21.9488 158.652 22.5031 159.037Z" fill="#1D1465"/>
<path d="M26.4235 158.963L135.788 95.8232C136.375 95.4416 136.864 94.9265 137.214 94.3201C137.564 93.7137 137.766 93.0331 137.804 92.3338V3.86453C137.804 2.58089 136.9 2.05724 135.788 2.70138L26.4235 65.8407C25.8369 66.2229 25.3486 66.7381 24.9983 67.3444C24.6481 67.9507 24.4457 68.631 24.4077 69.3302V157.799C24.4077 159.083 25.3114 159.607 26.4235 158.963Z" fill="#1D1465"/>
<path opacity="0.5" d="M26.4235 158.963L135.788 95.8232C136.375 95.4416 136.864 94.9265 137.214 94.3201C137.564 93.7137 137.766 93.0331 137.804 92.3338V3.86453C137.804 2.58089 136.9 2.05724 135.788 2.70138L26.4235 65.8407C25.8369 66.2229 25.3486 66.7381 24.9983 67.3444C24.6481 67.9507 24.4457 68.631 24.4077 69.3302V157.799C24.4077 159.083 25.3114 159.607 26.4235 158.963Z" fill="black"/>
<path d="M26.127 161.261C25.5535 161.511 24.9325 161.634 24.3069 161.622C23.6813 161.609 23.0659 161.461 22.5031 161.187C21.9476 160.801 21.4904 160.29 21.1684 159.695C20.8465 159.101 20.6687 158.438 20.6495 157.762V149.708L24.4263 151.896V159.95C24.4031 161.122 25.1492 161.655 26.127 161.261Z" fill="#1D1465"/>
<path opacity="0.5" d="M26.127 161.261C25.5535 161.511 24.9325 161.634 24.3069 161.622C23.6813 161.609 23.0659 161.461 22.5031 161.187C21.9476 160.801 21.4904 160.29 21.1684 159.695C20.8465 159.101 20.6687 158.438 20.6495 157.762V149.708L24.4263 151.896V159.95C24.4031 161.122 25.1492 161.655 26.127 161.261Z" fill="black"/>
<path d="M24.4031 151.896V159.95C24.4031 161.233 25.3299 161.752 26.4189 161.113L135.783 97.9735C136.367 97.5928 136.854 97.0805 137.204 96.4777C137.554 95.8749 137.758 95.1984 137.799 94.5025V86.4114L24.4031 151.896Z" fill="#1D1465"/>
<path opacity="0.3" d="M24.4077 151.877V159.95C24.4077 161.233 25.3345 161.752 26.4235 161.113L135.788 97.9735C136.371 97.5923 136.857 97.0798 137.206 96.477C137.555 95.8742 137.758 95.198 137.799 94.5025V86.4114L24.4077 151.877Z" fill="black"/>
<path d="M28.1845 141.77V70.586C28.2061 70.1667 28.3265 69.7583 28.5359 69.3943C28.7452 69.0303 29.0377 68.7209 29.3894 68.4914L132.794 8.77202C133.462 8.38739 134.004 8.69787 134.004 9.46713V80.6883C133.981 81.108 133.86 81.5165 133.65 81.8805C133.44 82.2445 133.147 82.5537 132.794 82.7829L29.394 142.488C28.7267 142.873 28.1845 142.558 28.1845 141.77Z" fill="#1D1465"/>
<path d="M28.1845 141.77V70.586C28.2061 70.1667 28.3265 69.7583 28.5359 69.3943C28.7452 69.0303 29.0377 68.7209 29.3894 68.4914L132.794 8.77202C133.462 8.38739 134.004 8.69787 134.004 9.46713V80.6883C133.981 81.108 133.86 81.5165 133.65 81.8805C133.44 82.2445 133.147 82.5537 132.794 82.7829L29.394 142.488C28.7267 142.873 28.1845 142.558 28.1845 141.77Z" fill="#263238"/>
<path d="M81.101 121.718C80.5506 122.076 80.0925 122.559 79.7639 123.128C79.4354 123.696 79.2457 124.334 79.2103 124.99C79.2103 126.195 80.0584 126.686 81.101 126.084C81.6521 125.725 82.1106 125.242 82.4392 124.672C82.7678 124.103 82.9571 123.464 82.9917 122.807C82.9917 121.603 82.1437 121.116 81.101 121.718Z" fill="#1D1465"/>
<path opacity="0.7" d="M25.0009 67.3375C24.6417 67.9412 24.4364 68.6239 24.4031 69.3256V151.896L20.6495 149.708V67.1614C20.6738 66.4575 20.878 65.7715 21.2426 65.1688L25.0009 67.3375Z" fill="black"/>
<path opacity="0.3" d="M137.781 3.53087C137.637 2.49284 136.798 2.14065 135.783 2.70138L26.4189 65.8407C25.826 66.2116 25.3365 66.7265 24.9963 67.3375L21.2148 65.1549C21.5574 64.544 22.0482 64.0293 22.6421 63.6581L132.006 0.523356C132.606 0.204848 133.272 0.0321463 133.951 0.0192638C134.63 0.0063814 135.302 0.153681 135.913 0.449211C136.427 0.79925 136.859 1.25552 137.182 1.78717C137.504 2.31883 137.708 2.91346 137.781 3.53087Z" fill="black"/>
<path d="M143.68 14.421C143.517 14.3394 143.336 14.3037 143.154 14.3176C142.973 14.3315 142.799 14.3944 142.651 14.4997L39.4592 74.1126C39.052 74.3819 38.714 74.7434 38.4724 75.1676C38.2309 75.5919 38.0927 76.0671 38.0689 76.5547V147.303C38.0545 147.542 38.1019 147.781 38.2066 147.996C38.3114 148.211 38.4698 148.395 38.6667 148.531C38.8938 148.656 40.1079 149.361 40.4694 149.555C40.5973 149.621 40.7402 149.651 40.8835 149.642C41.0268 149.634 41.1653 149.588 41.285 149.509L144.454 89.8963C144.861 89.6269 145.199 89.2655 145.44 88.8412C145.682 88.4169 145.82 87.9417 145.844 87.4541V16.3395C145.864 16.1598 145.835 15.9778 145.758 15.8141C145.681 15.6504 145.56 15.5114 145.408 15.4127C145.176 15.2597 143.939 14.5739 143.68 14.421Z" fill="#1D1465"/>
<path d="M41.2619 75.1135L144.458 15.5239C145.237 15.0605 145.848 15.4405 145.848 16.3395V87.4541C145.825 87.9417 145.686 88.4169 145.445 88.8412C145.203 89.2655 144.865 89.6269 144.458 89.8963L41.2619 149.509C40.4833 149.972 39.8716 149.226 39.8716 148.327V77.5557C39.8961 77.0682 40.0346 76.5933 40.2761 76.1692C40.5176 75.745 40.8552 75.3834 41.2619 75.1135Z" fill="#FAFAFA"/>
<path d="M145.088 15.7927C145.362 15.7927 145.404 16.1356 145.404 16.3395V87.4541C145.379 87.8624 145.259 88.2593 145.054 88.6132C144.849 88.9672 144.564 89.2684 144.222 89.4931L41.0394 149.106C40.9702 149.151 40.8902 149.176 40.8077 149.18C40.5482 149.18 40.3443 148.782 40.3443 148.327V77.5557C40.3667 77.1475 40.4828 76.7499 40.6838 76.3939C40.8847 76.0379 41.165 75.733 41.5028 75.5028L144.69 15.9224C144.809 15.8454 144.947 15.8007 145.088 15.7927ZM145.088 15.3293C144.865 15.3388 144.648 15.4058 144.458 15.5239L41.2619 75.1135C40.8552 75.3834 40.5176 75.745 40.2761 76.1692C40.0346 76.5933 39.8961 77.0682 39.8716 77.5557V148.327C39.8716 149.041 40.2702 149.643 40.7985 149.643C40.9621 149.64 41.122 149.594 41.2619 149.509L144.454 89.8963C144.861 89.6269 145.199 89.2655 145.44 88.8412C145.682 88.4169 145.82 87.9417 145.844 87.4541V16.3395C145.844 15.7 145.529 15.3293 145.065 15.3293H145.088Z" fill="#E0E0E0"/>
<path d="M38.639 148.531C38.7919 148.61 39.8902 149.236 40.3721 149.514C40.1991 149.37 40.062 149.188 39.9719 148.982C39.8818 148.776 39.8411 148.552 39.8531 148.327V82.1759L38.0458 81.1193V147.303C38.0309 147.542 38.0776 147.78 38.1815 147.995C38.2854 148.21 38.4429 148.395 38.639 148.531Z" fill="#F0F0F0"/>
<path d="M145.867 16.3256C145.867 15.4358 145.232 15.0744 144.477 15.5239L41.2619 75.1135C40.8552 75.3834 40.5176 75.745 40.2761 76.1692C40.0346 76.5933 39.8961 77.0682 39.8716 77.5557V82.1898L145.867 20.9597V16.3256Z" fill="#1D1465"/>
<g opacity="0.4">
<path d="M144.458 15.5239L41.2619 75.1089C40.8477 75.3701 40.5065 75.732 40.2702 76.1608L38.4768 75.1182C38.7127 74.7044 39.051 74.3581 39.4592 74.1126L142.651 14.4997C142.799 14.3937 142.973 14.3299 143.154 14.3152C143.335 14.3005 143.517 14.3355 143.68 14.4163C143.93 14.5739 145.102 15.2366 145.404 15.3988C145.248 15.341 145.08 15.3222 144.915 15.344C144.751 15.3658 144.594 15.4275 144.458 15.5239Z" fill="white"/>
</g>
<path opacity="0.15" d="M38.0458 81.1239V76.5316C38.0649 76.0311 38.2134 75.5441 38.4768 75.1182L40.2748 76.1562C40.0152 76.5748 39.8698 77.0541 39.8531 77.5464V82.1805L38.0458 81.1239Z" fill="black"/>
<path d="M124.105 69.6731L62.3006 105.356C62.0001 105.551 61.7498 105.814 61.5702 106.124C61.3907 106.434 61.2868 106.782 61.2672 107.14V124.86C61.2868 125.218 61.3907 125.566 61.5702 125.876C61.7498 126.186 62.0001 126.45 62.3006 126.645L64.1033 127.683C64.4236 127.845 64.7776 127.929 65.1367 127.929C65.4957 127.929 65.8497 127.845 66.1701 127.683L127.966 92.0001C128.266 91.8041 128.516 91.54 128.696 91.2292C128.876 90.9185 128.979 90.5698 128.999 90.2114V72.486C128.979 72.1283 128.876 71.7802 128.696 71.4702C128.516 71.1602 128.266 70.8969 127.966 70.7019L126.158 69.6639C125.839 69.5044 125.487 69.4222 125.131 69.4238C124.774 69.4254 124.423 69.5108 124.105 69.6731Z" fill="#1D1465"/>
<path opacity="0.5" d="M128.999 72.3285C128.925 71.7955 128.494 71.6009 127.975 71.9021L66.1701 107.585C65.8653 107.774 65.6146 108.039 65.4425 108.354L61.5731 106.12C61.7465 105.81 61.9951 105.549 62.296 105.36L124.105 69.6778C124.425 69.5154 124.778 69.4307 125.136 69.4307C125.495 69.4307 125.848 69.5154 126.168 69.6778L127.975 70.7158C128.25 70.8964 128.484 71.1336 128.661 71.4117C128.837 71.6898 128.953 72.0023 128.999 72.3285Z" fill="white"/>
<path d="M65.994 127.771C65.6914 127.89 65.367 127.944 65.0421 127.93C64.7171 127.915 64.3988 127.833 64.1079 127.687L62.3006 126.649C62.0006 126.454 61.7507 126.19 61.5712 125.88C61.3917 125.57 61.2876 125.223 61.2672 124.865V107.144C61.2811 106.783 61.3864 106.43 61.5731 106.12L65.4425 108.354C65.2545 108.66 65.1491 109.01 65.1367 109.369V127.094C65.1367 127.683 65.5074 127.956 65.994 127.771Z" fill="#263238"/>
<path d="M66.1701 107.585L127.975 71.9021C128.545 71.5731 129.008 71.8372 129.008 72.4953V90.2206C128.989 90.579 128.885 90.9277 128.705 91.2385C128.526 91.5493 128.275 91.8134 127.975 92.0094L66.1793 127.692C65.6093 128.021 65.1459 127.752 65.1459 127.094V109.373C65.1645 109.016 65.2669 108.668 65.4448 108.357C65.6227 108.046 65.8711 107.782 66.1701 107.585Z" fill="#1D1465"/>
<path d="M107.719 79.1359L62.3053 105.36C62.0044 105.549 61.7558 105.81 61.5823 106.12L65.4518 108.354C65.6239 108.039 65.8746 107.774 66.1793 107.585L111.593 81.3649L107.719 79.1359Z" fill="#455A64"/>
<path d="M111.584 81.3649L66.1701 107.585C65.8694 107.781 65.6192 108.045 65.4396 108.355C65.2601 108.666 65.1563 109.015 65.1367 109.373V127.089C65.1367 127.747 65.6001 128.016 66.1701 127.687L111.584 101.468V81.3649Z" fill="#37474F"/>
<path d="M76.6431 105.425L100.078 91.8982C101.046 91.3375 101.834 91.736 101.834 92.7879C101.791 93.3787 101.609 93.951 101.303 94.4583C100.997 94.9655 100.575 95.3935 100.073 95.7074L76.6431 109.239C75.6746 109.8 74.8821 109.401 74.8821 108.349C74.9259 107.758 75.108 107.185 75.4139 106.677C75.7198 106.169 76.1409 105.74 76.6431 105.425Z" fill="#1D1465"/>
<path d="M81.444 109.906C81.4483 109.901 81.4537 109.897 81.4597 109.895C81.4656 109.892 81.4721 109.891 81.4787 109.891C81.4853 109.891 81.4918 109.892 81.4978 109.895C81.5038 109.897 81.5091 109.901 81.5135 109.906C81.5342 109.938 81.544 109.975 81.5413 110.013V112.65C81.5416 112.904 81.5199 113.159 81.4764 113.41C81.4381 113.639 81.3728 113.863 81.2818 114.077C81.1987 114.273 81.0896 114.457 80.9574 114.624C80.827 114.778 80.6701 114.909 80.494 115.008C80.3561 115.098 80.1952 115.146 80.0306 115.147C79.9677 115.142 79.9065 115.125 79.8507 115.095C79.7949 115.066 79.7457 115.025 79.7062 114.976C79.6045 114.84 79.5377 114.681 79.5116 114.512C79.4672 114.288 79.447 114.06 79.4513 113.831V111.19C79.4512 111.144 79.4606 111.098 79.4791 111.055C79.4905 111.017 79.5151 110.984 79.5486 110.963L79.8406 110.791C79.85 110.783 79.8624 110.778 79.8753 110.778C79.8882 110.778 79.9006 110.783 79.9101 110.791C79.9315 110.823 79.9413 110.86 79.9379 110.898V113.502C79.9343 113.646 79.9483 113.789 79.9796 113.929C79.9924 114.018 80.031 114.102 80.0908 114.17C80.1117 114.194 80.138 114.214 80.1678 114.227C80.1975 114.24 80.2299 114.246 80.2623 114.244C80.3415 114.238 80.4181 114.213 80.4847 114.17C80.5671 114.12 80.6421 114.059 80.7071 113.989C80.7795 113.906 80.8388 113.812 80.8832 113.711C80.9355 113.592 80.9744 113.468 80.9991 113.34C81.0261 113.187 81.0385 113.032 81.0362 112.877V110.268C81.0376 110.221 81.0487 110.175 81.0686 110.133C81.08 110.095 81.1046 110.062 81.1381 110.041L81.444 109.906Z" fill="#FAFAFA"/>
<path d="M83.2605 112.399C83.2629 112.365 83.2549 112.331 83.2374 112.302C83.2264 112.29 83.2126 112.281 83.1973 112.275C83.182 112.269 83.1655 112.268 83.1493 112.27C83.0924 112.262 83.0347 112.262 82.9779 112.27L82.7091 112.321C82.6224 112.342 82.5317 112.342 82.4449 112.321C82.3769 112.299 82.3182 112.255 82.2781 112.195C82.2328 112.12 82.2028 112.037 82.1901 111.95C82.1449 111.702 82.1449 111.447 82.1901 111.199C82.2248 111.057 82.2745 110.919 82.3384 110.787C82.4018 110.655 82.4795 110.531 82.5701 110.416C82.6578 110.307 82.7645 110.214 82.8852 110.143C82.9826 110.083 83.0916 110.045 83.2049 110.031C83.2871 110.023 83.3699 110.041 83.4413 110.082C83.5092 110.124 83.5627 110.185 83.5942 110.258C83.6316 110.345 83.652 110.438 83.6544 110.532C83.6592 110.578 83.6495 110.625 83.6266 110.666C83.6153 110.704 83.5906 110.737 83.5571 110.759L83.2791 110.921C83.2664 110.928 83.252 110.932 83.2374 110.932C83.2227 110.932 83.2083 110.928 83.1957 110.921L83.1354 110.875C83.1115 110.856 83.0824 110.845 83.052 110.842C82.9924 110.849 82.9353 110.87 82.8852 110.903C82.8124 110.946 82.7481 111.003 82.6952 111.069C82.6391 111.142 82.6097 111.232 82.6118 111.324C82.6052 111.359 82.6052 111.396 82.6118 111.431C82.6206 111.444 82.6323 111.455 82.6459 111.463C82.6596 111.471 82.6748 111.476 82.6905 111.477C82.7412 111.486 82.7928 111.486 82.8435 111.477L83.103 111.431C83.3208 111.389 83.4691 111.431 83.5664 111.551C83.6686 111.723 83.7156 111.922 83.7008 112.121C83.6996 112.259 83.6809 112.396 83.6452 112.529C83.6085 112.674 83.5557 112.814 83.4876 112.946C83.4195 113.083 83.3339 113.211 83.2327 113.326C83.1367 113.439 83.0224 113.534 82.8944 113.609C82.7926 113.674 82.6766 113.714 82.5562 113.725C82.469 113.728 82.3831 113.703 82.3105 113.655C82.239 113.606 82.184 113.537 82.153 113.456C82.1155 113.368 82.0966 113.273 82.0974 113.178C82.0931 113.13 82.1027 113.082 82.1252 113.039C82.1365 113.001 82.1612 112.968 82.1947 112.946L82.4727 112.784C82.5098 112.784 82.5376 112.761 82.5562 112.784L82.6164 112.849C82.6287 112.863 82.6437 112.874 82.6604 112.882C82.6771 112.89 82.6952 112.894 82.7137 112.895C82.7789 112.896 82.8425 112.874 82.8944 112.835C82.9781 112.787 83.0533 112.726 83.1169 112.654C83.1484 112.616 83.1749 112.574 83.1957 112.529C83.2284 112.492 83.2508 112.448 83.2605 112.399Z" fill="#FAFAFA"/>
<path d="M84.2059 111.144C84.205 110.903 84.2252 110.662 84.2661 110.425C84.3048 110.202 84.3654 109.983 84.4469 109.772C84.515 109.582 84.6085 109.403 84.7249 109.239C84.822 109.098 84.9485 108.979 85.0956 108.891C85.2031 108.819 85.3341 108.791 85.4617 108.813C85.575 108.839 85.6742 108.907 85.7398 109.003C85.827 109.128 85.8884 109.27 85.9205 109.42C85.965 109.614 85.9867 109.813 85.9854 110.013V110.3C85.9869 110.348 85.9757 110.396 85.9529 110.439C85.9416 110.477 85.9169 110.51 85.8834 110.532L84.6786 111.232C84.6757 111.313 84.6867 111.395 84.711 111.473C84.7289 111.525 84.761 111.572 84.8037 111.607C84.8417 111.637 84.8897 111.652 84.9381 111.649C84.9941 111.642 85.0479 111.623 85.0956 111.593C85.1657 111.555 85.2285 111.505 85.281 111.445C85.3284 111.391 85.3689 111.332 85.4015 111.269C85.4213 111.232 85.4429 111.196 85.4664 111.162C85.4863 111.138 85.5097 111.118 85.5359 111.102L85.8232 110.935C85.8331 110.927 85.8453 110.923 85.8579 110.923C85.8706 110.923 85.8828 110.927 85.8927 110.935C85.9049 110.95 85.9137 110.967 85.9185 110.985C85.9233 111.004 85.924 111.023 85.9205 111.042C85.9154 111.132 85.8967 111.221 85.8649 111.306C85.8249 111.434 85.7721 111.558 85.7073 111.676C85.6348 111.812 85.5478 111.94 85.4478 112.056C85.3481 112.176 85.2291 112.278 85.0956 112.358C84.9861 112.429 84.855 112.461 84.7249 112.446C84.611 112.418 84.5116 112.349 84.4469 112.251C84.3556 112.111 84.2941 111.953 84.2661 111.788C84.224 111.576 84.2038 111.36 84.2059 111.144ZM85.0956 109.665C85.0244 109.704 84.9626 109.757 84.9149 109.823C84.8635 109.888 84.8214 109.959 84.7898 110.036C84.7573 110.113 84.731 110.192 84.711 110.272C84.6947 110.346 84.6839 110.42 84.6786 110.495L85.4942 110.031C85.4894 109.967 85.4802 109.904 85.4664 109.841C85.4593 109.785 85.4368 109.732 85.4015 109.688C85.3876 109.668 85.3698 109.651 85.349 109.639C85.3283 109.626 85.3051 109.618 85.281 109.614C85.2151 109.609 85.1494 109.627 85.0956 109.665Z" fill="#FAFAFA"/>
<path d="M87.4405 108.372C87.3001 108.452 87.1895 108.576 87.1254 108.725C87.0533 108.92 87.0202 109.128 87.0281 109.336V111.009C87.0287 111.057 87.0192 111.104 87.0002 111.148C86.9889 111.186 86.9642 111.219 86.9307 111.241L86.6573 111.398C86.653 111.403 86.6476 111.407 86.6416 111.41C86.6356 111.413 86.6292 111.414 86.6226 111.414C86.616 111.414 86.6095 111.413 86.6035 111.41C86.5975 111.407 86.5922 111.403 86.5878 111.398C86.5671 111.367 86.5573 111.329 86.56 111.292V108.294C86.5603 108.246 86.5697 108.199 86.5878 108.155C86.6008 108.117 86.6251 108.085 86.6573 108.062L86.9307 107.904C86.9402 107.896 86.9526 107.891 86.9655 107.891C86.9784 107.891 86.9908 107.896 87.0002 107.904C87.0217 107.934 87.0316 107.97 87.0281 108.006V108.155C87.0833 108.03 87.1516 107.912 87.232 107.802C87.3053 107.701 87.4002 107.617 87.51 107.557L87.6768 107.459C87.6855 107.451 87.6971 107.446 87.7093 107.446C87.7214 107.446 87.733 107.451 87.7417 107.459C87.7641 107.49 87.7755 107.528 87.7741 107.566V107.988C87.7733 108.036 87.7623 108.083 87.7417 108.127C87.73 108.163 87.7074 108.196 87.6768 108.219L87.4405 108.372Z" fill="#FAFAFA"/>
<path d="M90.8975 108.15C90.9019 108.145 90.9072 108.141 90.9132 108.138C90.9192 108.136 90.9257 108.134 90.9323 108.134C90.9389 108.134 90.9454 108.136 90.9513 108.138C90.9573 108.141 90.9627 108.145 90.967 108.15C90.9878 108.181 90.9975 108.219 90.9948 108.256V108.72C90.9946 108.768 90.9852 108.815 90.967 108.859C90.9511 108.893 90.9273 108.923 90.8975 108.947L89.3127 109.874C89.3032 109.883 89.2908 109.887 89.2779 109.887C89.265 109.887 89.2526 109.883 89.2432 109.874C89.2224 109.844 89.2126 109.808 89.2154 109.772V105.601C89.2156 105.553 89.225 105.506 89.2432 105.462C89.2561 105.426 89.2805 105.395 89.3127 105.374L89.6046 105.203C89.6141 105.194 89.6265 105.189 89.6394 105.189C89.6523 105.189 89.6647 105.194 89.6741 105.203C89.6949 105.232 89.7047 105.268 89.7019 105.305V108.831L90.8975 108.15Z" fill="#FAFAFA"/>
<path d="M92.3202 104.721C92.4246 104.648 92.5505 104.614 92.677 104.623C92.7855 104.632 92.8867 104.682 92.9597 104.762C93.0461 104.862 93.1094 104.979 93.1451 105.105C93.1946 105.269 93.2226 105.439 93.2285 105.61C93.2285 105.648 93.2285 105.698 93.2285 105.759V106.116C93.2285 106.171 93.2285 106.222 93.2285 106.264C93.2193 106.465 93.1914 106.665 93.1451 106.862C93.1022 107.053 93.0401 107.239 92.9597 107.418C92.8863 107.584 92.7912 107.74 92.677 107.881C92.5793 108.009 92.4582 108.118 92.3202 108.201C92.213 108.271 92.0865 108.305 91.9588 108.298C91.8517 108.289 91.7523 108.239 91.6807 108.159C91.5918 108.064 91.5281 107.947 91.4953 107.821C91.4458 107.657 91.4178 107.487 91.4119 107.316C91.4119 107.279 91.4119 107.232 91.4119 107.172V106.815C91.4119 106.755 91.4119 106.704 91.4119 106.667C91.4173 106.464 91.4437 106.262 91.4907 106.065C91.5358 105.872 91.5994 105.684 91.6807 105.504C91.7543 105.339 91.8477 105.183 91.9588 105.04C92.057 104.911 92.1798 104.802 92.3202 104.721ZM92.7558 105.916C92.7556 105.814 92.7384 105.712 92.7048 105.615C92.6876 105.556 92.6519 105.504 92.6029 105.467C92.5634 105.44 92.5157 105.429 92.4685 105.434C92.4155 105.444 92.3651 105.465 92.3202 105.495C92.2657 105.524 92.2158 105.562 92.1719 105.606C92.1188 105.661 92.0735 105.723 92.0375 105.791C91.991 105.875 91.9566 105.966 91.9356 106.06C91.9052 106.178 91.8865 106.299 91.88 106.421C91.88 106.458 91.88 106.5 91.88 106.551V106.88C91.88 106.931 91.88 106.973 91.88 107.001C91.8843 107.103 91.903 107.205 91.9356 107.302C91.9525 107.361 91.9883 107.413 92.0375 107.45C92.0568 107.464 92.0787 107.473 92.1018 107.478C92.1249 107.483 92.1488 107.483 92.1719 107.478C92.2244 107.469 92.2748 107.45 92.3202 107.422C92.3739 107.391 92.4237 107.354 92.4685 107.311C92.5202 107.255 92.5653 107.192 92.6029 107.126C92.6475 107.041 92.6817 106.95 92.7048 106.857C92.7351 106.739 92.7522 106.618 92.7558 106.496C92.7586 106.452 92.7586 106.409 92.7558 106.366V106.041C92.7585 106 92.7585 105.958 92.7558 105.916Z" fill="#FAFAFA"/>
<path d="M94.6465 107.432C94.7058 107.395 94.759 107.35 94.8041 107.297C94.8599 107.232 94.9081 107.16 94.9477 107.084C94.9938 106.991 95.0295 106.893 95.0543 106.792C95.0828 106.678 95.0968 106.562 95.096 106.445V106.208C95.096 106.255 95.0497 106.31 95.0172 106.375C94.9855 106.443 94.9483 106.508 94.906 106.57C94.8576 106.635 94.805 106.697 94.7485 106.755C94.6903 106.816 94.6231 106.868 94.5492 106.908C94.5016 106.94 94.4479 106.963 94.3913 106.974C94.3348 106.985 94.2765 106.985 94.2202 106.973C94.1172 106.941 94.0287 106.873 93.9699 106.783C93.8944 106.663 93.8396 106.532 93.8077 106.394C93.7682 106.219 93.7465 106.04 93.7429 105.861C93.7429 105.8 93.7429 105.726 93.7429 105.638C93.7429 105.55 93.7429 105.476 93.7429 105.411C93.7487 105.207 93.7703 105.004 93.8077 104.804C93.8458 104.607 93.9 104.413 93.9699 104.225C94.0355 104.061 94.1194 103.906 94.2202 103.761C94.3056 103.634 94.4179 103.526 94.5492 103.446C94.6108 103.409 94.6781 103.383 94.7485 103.368C94.8005 103.358 94.8539 103.358 94.906 103.368C94.9471 103.379 94.9851 103.4 95.0172 103.428C95.0469 103.45 95.0733 103.477 95.096 103.507V103.358C95.0962 103.311 95.1057 103.263 95.1238 103.219C95.1368 103.183 95.1612 103.152 95.1933 103.131L95.4667 102.969C95.4762 102.96 95.4886 102.955 95.5015 102.955C95.5144 102.955 95.5268 102.96 95.5363 102.969C95.5586 103 95.57 103.037 95.5687 103.076V106.088C95.5812 106.539 95.4974 106.988 95.3231 107.404C95.1863 107.731 94.9495 108.007 94.6465 108.192C94.5431 108.256 94.4251 108.292 94.3036 108.298C94.2074 108.304 94.1119 108.28 94.0302 108.229C93.9518 108.17 93.8884 108.094 93.8448 108.006C93.7996 107.901 93.7745 107.787 93.7707 107.673C93.7663 107.625 93.776 107.576 93.7985 107.534C93.8098 107.495 93.8345 107.462 93.868 107.441L94.1136 107.302C94.1192 107.296 94.126 107.291 94.1336 107.288C94.1412 107.284 94.1494 107.283 94.1576 107.283C94.1659 107.283 94.174 107.284 94.1816 107.288C94.1892 107.291 94.196 107.296 94.2016 107.302C94.2245 107.326 94.2447 107.352 94.2619 107.381C94.2901 107.43 94.3367 107.467 94.3916 107.483C94.4472 107.524 94.5307 107.478 94.6465 107.432ZM94.2109 105.184C94.2109 105.308 94.2109 105.428 94.2109 105.546C94.1977 105.731 94.2502 105.914 94.3592 106.065C94.4004 106.1 94.453 106.12 94.5075 106.12C94.5619 106.12 94.6145 106.1 94.6558 106.065C94.7903 105.977 94.8952 105.851 94.957 105.703C95.0414 105.51 95.0885 105.302 95.096 105.091C95.096 105.022 95.096 104.938 95.096 104.841C95.096 104.744 95.096 104.66 95.096 104.6C95.1054 104.434 95.0562 104.27 94.957 104.137C94.9159 104.099 94.8622 104.078 94.8064 104.078C94.7506 104.078 94.6968 104.099 94.6558 104.137C94.5239 104.224 94.4207 104.348 94.3592 104.494C94.264 104.712 94.2136 104.946 94.2109 105.184Z" fill="#FAFAFA"/>
<path d="M96.6484 101.069C96.6575 101.061 96.669 101.057 96.6809 101.057C96.6927 101.057 96.7042 101.061 96.7133 101.069C96.7375 101.099 96.7492 101.137 96.7457 101.176V101.681C96.746 101.729 96.7349 101.777 96.7133 101.82C96.7003 101.855 96.6778 101.885 96.6484 101.908L96.3379 102.089C96.3336 102.093 96.3282 102.097 96.3222 102.1C96.3162 102.103 96.3098 102.104 96.3032 102.104C96.2966 102.104 96.2901 102.103 96.2841 102.1C96.2781 102.097 96.2728 102.093 96.2684 102.089C96.2563 102.075 96.2472 102.058 96.2416 102.041C96.236 102.023 96.2341 102.005 96.236 101.987V101.481C96.2357 101.433 96.2468 101.386 96.2684 101.342C96.2814 101.306 96.3058 101.275 96.3379 101.254L96.6484 101.069ZM96.7272 105.42C96.7273 105.467 96.7179 105.512 96.6994 105.555C96.6846 105.591 96.6607 105.623 96.6299 105.647L96.3518 105.805C96.3479 105.81 96.343 105.814 96.3374 105.816C96.3318 105.819 96.3256 105.821 96.3194 105.821C96.3132 105.821 96.307 105.819 96.3014 105.816C96.2958 105.814 96.2909 105.81 96.287 105.805C96.2627 105.775 96.2511 105.737 96.2545 105.698V102.7C96.2542 102.652 96.2653 102.604 96.287 102.561C96.3 102.525 96.3224 102.493 96.3518 102.469L96.6299 102.311C96.6393 102.302 96.6517 102.297 96.6646 102.297C96.6775 102.297 96.69 102.302 96.6994 102.311C96.7201 102.341 96.7299 102.377 96.7272 102.413V105.42Z" fill="#FAFAFA"/>
<path d="M99.1647 104.007C99.1645 104.055 99.1551 104.102 99.1369 104.146C99.124 104.182 99.0996 104.213 99.0674 104.234L98.7894 104.396C98.7807 104.405 98.7691 104.41 98.7569 104.41C98.7448 104.41 98.7332 104.405 98.7245 104.396C98.7002 104.366 98.6886 104.328 98.6921 104.29V102.659C98.7063 102.466 98.6712 102.273 98.5901 102.098C98.5252 101.982 98.4233 101.963 98.2796 102.047C98.1364 102.143 98.0301 102.285 97.9784 102.45C97.901 102.669 97.8634 102.899 97.8672 103.131V104.767C97.867 104.815 97.8575 104.862 97.8394 104.906C97.828 104.944 97.8034 104.977 97.7699 104.999L97.4965 105.156C97.4921 105.161 97.4868 105.165 97.4808 105.168C97.4748 105.171 97.4683 105.172 97.4617 105.172C97.4551 105.172 97.4486 105.171 97.4426 105.168C97.4367 105.165 97.4313 105.161 97.427 105.156C97.4055 105.127 97.3956 105.091 97.3992 105.054V102.056C97.3985 102.008 97.408 101.961 97.427 101.917C97.4383 101.879 97.463 101.846 97.4965 101.824L97.7699 101.667C97.7742 101.662 97.7796 101.658 97.7856 101.655C97.7916 101.653 97.7981 101.651 97.8046 101.651C97.8112 101.651 97.8177 101.653 97.8237 101.655C97.8297 101.658 97.835 101.662 97.8394 101.667C97.8601 101.698 97.8699 101.736 97.8672 101.773V101.917C97.9282 101.776 98.0027 101.641 98.0896 101.514C98.1659 101.397 98.2692 101.3 98.3908 101.231C98.4963 101.154 98.6275 101.121 98.7569 101.139C98.8082 101.151 98.8562 101.175 98.8977 101.208C98.9393 101.241 98.9734 101.282 98.9979 101.329C99.0652 101.454 99.1091 101.591 99.1277 101.732C99.1524 101.916 99.1648 102.102 99.1647 102.288V104.007Z" fill="#FAFAFA"/>
<path d="M122.539 90.5172L118.039 93.1123L118.739 86.8007C118.197 86.5134 117.854 85.8136 117.854 84.808C117.854 83.0146 118.948 80.9339 120.291 80.1739C121.635 79.414 122.724 80.2203 122.724 82.0276C122.697 83.0909 122.393 84.1288 121.844 85.0397L122.539 90.5172Z" fill="#455A64"/>
<path d="M122.544 90.5172L118.581 88.2326L118.039 93.1169L122.544 90.5172Z" fill="#37474F"/>
<path d="M120.282 80.1601C119.302 80.8221 118.572 81.7926 118.206 82.9173L121.835 85.0119C122.384 84.101 122.687 83.0631 122.715 81.9998C122.724 80.2064 121.635 79.3862 120.282 80.1601Z" fill="#37474F"/>
<path d="M98.4094 59.1445C96.8662 58.2547 94.7392 58.3799 92.3851 59.7376C87.6861 62.4532 83.8769 69.0475 83.8769 74.474C83.8769 77.1989 84.8408 79.1081 86.3886 79.9886L89.3868 81.731C90.9253 82.6207 93.0524 82.491 95.4111 81.1332C100.11 78.4223 103.919 71.8233 103.919 66.3968C103.919 63.6859 102.965 61.7627 101.426 60.8962" fill="#1D1465"/>
<path d="M95.4065 61.4847C90.7075 64.2003 86.8983 70.7992 86.8983 76.2211C86.8983 81.643 90.7075 83.8488 95.4065 81.1332C100.105 78.4176 103.919 71.8233 103.915 66.3968C103.91 60.9703 100.101 58.7738 95.4065 61.4847Z" fill="#1D1465"/>
<path d="M100.101 73.524V74.145C98.9751 76.1544 97.3605 77.8471 95.4065 79.0664C93.576 80.1183 91.9216 80.2342 90.7075 79.5623V78.2832C90.7697 76.9526 91.1496 75.6561 91.8156 74.5024C92.4815 73.3487 93.4141 72.3713 94.5353 71.6519L95.7726 70.9382C96.8662 70.308 97.9321 70.2246 98.7662 70.7112C99.6003 71.1977 100.101 72.2219 100.101 73.524Z" fill="#1D1465"/>
<path opacity="0.4" d="M98.4094 59.1445L101.422 60.8962C99.883 60.0018 97.756 60.1269 95.3972 61.4847C92.3202 63.2642 89.6232 66.7073 88.131 70.396L85.1142 68.649C86.611 64.9417 89.2849 61.5171 92.3804 59.7377C94.7438 58.3845 96.8709 58.2547 98.4094 59.1445Z" fill="white"/>
<path opacity="0.2" d="M89.2802 81.6615L86.3932 79.9886C84.8454 79.1081 83.8815 77.2081 83.8815 74.474L86.8983 76.2257C86.9169 78.8671 87.8066 80.7486 89.2802 81.6615Z" fill="black"/>
<path opacity="0.1" d="M85.1234 68.649L88.1402 70.396C87.3672 72.2427 86.9521 74.2194 86.9168 76.2211L83.9 74.4694C83.9372 72.4695 84.3523 70.4946 85.1234 68.649Z" fill="black"/>
<path d="M94.3314 70.6463C94.0439 70.6494 93.7607 70.5758 93.5111 70.4331C93.2103 70.2326 92.9692 69.9544 92.8134 69.6281C92.6576 69.3019 92.5928 68.9395 92.626 68.5795C92.6653 67.7352 92.9063 66.9126 93.3288 66.1805C93.7512 65.4484 94.3429 64.8282 95.0543 64.3717C95.34 64.1436 95.688 64.007 96.0526 63.9799C96.4172 63.9527 96.7815 64.0362 97.098 64.2194C97.4144 64.4027 97.6681 64.6771 97.826 65.0069C97.9839 65.3367 98.0386 65.7064 97.983 66.0678C97.9429 66.9119 97.7016 67.7343 97.2792 68.4662C96.8568 69.1981 96.2656 69.8185 95.5547 70.2756C95.1869 70.5052 94.7648 70.6331 94.3314 70.6463Z" fill="white"/>
<path d="M98.7662 70.7065C97.9321 70.2199 96.8662 70.3034 95.7726 70.9336L94.5353 71.6472C93.4135 72.3671 92.4805 73.3452 91.8145 74.4998C91.1485 75.6544 90.7689 76.9518 90.7075 78.2832V79.5669C91.9216 80.2388 93.576 80.123 95.4065 79.071C97.3605 77.8518 98.9751 76.159 100.101 74.1496V73.5287C100.101 72.2219 99.6189 71.1977 98.7662 70.7065Z" fill="white"/>
<path d="M194.034 150.876C194.034 150.876 194.65 145.464 197.342 141.26C200.035 137.057 203.733 134.439 207.185 134.166C210.638 133.892 213.427 137.071 209.734 139.263C206.041 141.455 199.479 143.67 196.457 151.826L194.034 150.876Z" fill="#1D1465"/>
<path opacity="0.1" d="M194.034 150.876C194.034 150.876 194.65 145.464 197.342 141.26C200.035 137.057 203.733 134.439 207.185 134.166C210.638 133.892 213.427 137.071 209.734 139.263C206.041 141.455 199.479 143.67 196.457 151.826L194.034 150.876Z" fill="black"/>
<path d="M195.049 149.467H195.011C194.966 149.449 194.93 149.413 194.911 149.368C194.892 149.323 194.891 149.272 194.91 149.226C198.552 140.259 205.484 136.51 208.645 135.788C208.669 135.782 208.693 135.781 208.717 135.785C208.741 135.789 208.764 135.798 208.785 135.811C208.806 135.824 208.824 135.841 208.838 135.861C208.852 135.88 208.862 135.903 208.867 135.927C208.873 135.95 208.874 135.975 208.87 135.999C208.866 136.023 208.857 136.046 208.844 136.067C208.831 136.087 208.814 136.105 208.794 136.119C208.774 136.133 208.752 136.144 208.728 136.149C205.633 136.863 198.835 140.542 195.252 149.37C195.235 149.407 195.205 149.437 195.168 149.454C195.13 149.472 195.089 149.477 195.049 149.467Z" fill="white"/>
<path d="M213.483 149.574C213.172 150.278 212.403 150.649 211.689 150.936C210.976 151.224 210.197 151.534 209.808 152.201C209.03 153.545 210.309 155.445 209.474 156.748C209.278 157.01 209.031 157.229 208.747 157.393C208.464 157.558 208.15 157.663 207.825 157.702C207.292 157.799 206.75 157.799 206.212 157.846C205.955 157.842 205.698 157.822 205.443 157.786C204.694 157.618 203.911 157.701 203.214 158.022C202.143 158.624 201.824 159.973 201.165 161.015C200.763 161.629 200.234 162.149 199.612 162.54C198.991 162.93 198.292 163.181 197.565 163.277C197.101 163.337 196.175 163.425 195.711 163.152C195.675 163.134 195.641 163.112 195.609 163.087C195.54 163.013 195.456 162.915 195.419 162.864C195.417 162.854 195.417 162.843 195.419 162.832C195.229 162.132 195.54 161.409 195.554 160.686V160.557C195.521 159.718 195.498 158.884 195.479 158.05C195.439 156.505 195.424 154.96 195.433 153.416C195.433 152.415 195.322 151.321 195.748 150.38C196.212 149.342 197.379 149.319 197.82 148.304C197.996 147.896 198.088 147.465 198.26 147.053C198.525 146.453 198.949 145.938 199.487 145.563C200.025 145.188 200.655 144.968 201.309 144.926C203.344 144.824 205.165 146.469 207.199 146.316C207.723 146.274 208.237 146.112 208.756 146.02C210.401 145.709 212.306 146.177 213.233 147.572C213.436 147.859 213.565 148.192 213.609 148.542C213.653 148.891 213.609 149.245 213.483 149.574Z" fill="#1D1465"/>
<path d="M195.215 159.621C195.172 159.608 195.134 159.578 195.112 159.538C195.089 159.499 195.083 159.452 195.095 159.407C197.903 148.87 208.997 147.359 211.606 147.535C211.629 147.536 211.651 147.542 211.672 147.552C211.693 147.562 211.711 147.576 211.726 147.593C211.742 147.611 211.753 147.631 211.76 147.653C211.767 147.674 211.77 147.697 211.768 147.72C211.764 147.765 211.742 147.807 211.707 147.836C211.673 147.866 211.628 147.88 211.583 147.878C209.039 147.697 198.177 149.185 195.428 159.5C195.416 159.544 195.386 159.581 195.346 159.603C195.306 159.626 195.26 159.632 195.215 159.621Z" fill="white"/>
<path d="M207.556 154.282C207.521 154.277 207.488 154.261 207.463 154.236C206.438 153.347 205.228 152.695 203.922 152.328C202.615 151.96 201.244 151.885 199.905 152.109C199.86 152.113 199.815 152.1 199.779 152.073C199.743 152.045 199.718 152.005 199.71 151.96C199.704 151.915 199.715 151.869 199.742 151.832C199.769 151.794 199.809 151.769 199.854 151.761C201.25 151.529 202.681 151.608 204.043 151.994C205.405 152.379 206.665 153.061 207.732 153.99C207.748 154.006 207.761 154.025 207.77 154.046C207.779 154.067 207.784 154.09 207.784 154.113C207.784 154.136 207.779 154.159 207.77 154.18C207.761 154.201 207.748 154.22 207.732 154.236C207.711 154.261 207.683 154.279 207.651 154.287C207.62 154.295 207.586 154.294 207.556 154.282Z" fill="white"/>
<path d="M168.532 23.6011L170.006 24.1664V20.9226C170.006 18.346 172.059 17.7297 174.288 19.018C176.521 20.3063 178.329 23.4343 178.329 26.0108V26.4742C178.639 26.3793 178.967 26.3558 179.288 26.4056C179.609 26.4553 179.915 26.577 180.182 26.7615C181.029 27.3134 181.733 28.0572 182.238 28.9325C182.743 29.8077 183.034 30.7898 183.088 31.7988V32.0119L185.145 33.1983C185.702 33.5616 186.165 34.0509 186.498 34.6265C186.83 35.2021 187.023 35.8479 187.059 36.5116C187.059 37.735 186.202 38.2309 185.145 37.6192L168.532 28.022C167.975 27.6595 167.512 27.1703 167.18 26.5945C166.848 26.0186 166.657 25.3724 166.623 24.7086C166.623 23.4899 167.471 22.994 168.532 23.6011Z" fill="#E6E6E6"/>
<path d="M188.269 21.0338L190.943 22.577C190.928 22.4601 190.92 22.3425 190.92 22.2248V21.4509C190.92 20.0606 191.883 19.5138 193.079 20.2043C193.593 20.5189 194.032 20.941 194.367 21.4416C194.562 19.7085 195.924 19.0643 197.574 20.0143C198.517 20.6277 199.302 21.4546 199.865 22.428C200.429 23.4014 200.755 24.4939 200.818 25.6169V26.7754C200.83 27.2383 200.736 27.6979 200.545 28.1193L202.769 29.3983C203.116 29.6282 203.403 29.9362 203.609 30.2976C203.816 30.659 203.934 31.0636 203.955 31.479C203.955 32.2436 203.418 32.5541 202.755 32.1741L188.269 23.8328C187.918 23.6045 187.627 23.2966 187.418 22.9341C187.21 22.5717 187.09 22.1651 187.069 21.7475C187.069 20.9643 187.606 20.6538 188.269 21.0338Z" fill="#E6E6E6"/>
<path d="M177.916 91.3653C175.97 94.6555 174.098 97.5147 172.782 98.8864C170.284 100.045 164.417 101.834 162.123 102.13C161.72 102.182 161.312 102.086 160.974 101.861C160.07 101.268 159.371 101.171 158.421 100.842C157.675 100.587 157.359 100.23 157.22 100.379C157.077 100.547 157.005 100.765 157.019 100.985C157.034 101.206 157.135 101.412 157.299 101.56C157.656 101.899 158.051 102.194 158.476 102.441C157.459 102.693 156.397 102.712 155.371 102.496C153.383 101.973 152.447 102.927 153.791 105.087C154.255 105.856 156.164 107.093 160.001 106.76C161.37 106.686 162.733 106.531 164.084 106.296C167.763 105.508 171.855 104.748 174.371 103.979C175.307 103.611 176.145 103.031 176.818 102.283C181.049 97.4591 182.453 94.0206 184.307 90.8972L184.149 85.7997C181.146 85.6978 179.543 88.6126 177.916 91.3653Z" fill="#FFA8A7"/>
<path d="M184.664 85.6978C183.793 85.5754 182.905 85.6933 182.097 86.0388C181.288 86.3843 180.589 86.9442 180.076 87.658C178.018 90.2948 174.376 96.625 174.376 96.625C174.376 96.625 175.567 99.7993 178.783 100.332L183.95 93.3533C183.95 93.3533 186.397 88.506 184.664 85.6978Z" fill="#455A64"/>
<path d="M195.836 156.849H192.467V162.855H195.836V156.849Z" fill="#FFA8A7"/>
<path d="M184.158 156.53L180.794 156.65L180.623 150.292L184.158 150.172V156.53Z" fill="#FFA8A7"/>
<path d="M196.309 104.86C196.309 108.206 195.818 135.162 195.818 135.162C195.892 136.126 196.745 137.905 196.573 141.608C196.318 146.636 195.98 159.852 195.98 159.852C195.402 160.148 194.763 160.309 194.114 160.322C193.464 160.334 192.821 160.199 192.231 159.927C192.231 159.927 189.497 141.39 188.894 136.427C188.366 132.076 187.013 117.673 187.013 117.673L185.192 134.699C185.578 136.525 185.718 138.396 185.609 140.259C185.451 142.577 184.367 154.57 184.367 154.57C183.785 154.913 183.132 155.119 182.459 155.173C181.785 155.227 181.108 155.127 180.479 154.88C180.479 154.88 178.56 136.807 178.523 134.685C178.477 132.275 179.645 104.832 179.645 104.832L196.309 104.86Z" fill="#37474F"/>
<path d="M192.467 161.122V160.622C192.143 160.765 191.397 163.74 190.058 165.01C188.996 166.02 187.551 167.183 187.18 168.31C186.809 169.436 189.196 170.126 190.192 169.945C191.341 169.732 193.343 168.884 193.844 168.092C194.344 167.299 194.58 166.15 194.988 165.575C195.396 165.001 196.337 164.361 196.555 163.694C196.623 163.07 196.558 162.438 196.365 161.84C196.207 161.219 196.04 160.538 195.836 160.598V160.978C195.361 161.368 194.764 161.578 194.149 161.572C193.658 161.613 192.463 161.511 192.467 161.122Z" fill="#263238"/>
<path d="M180.757 155.566C180.581 155.566 180.437 155.83 180.053 156.266C179.481 156.867 178.812 157.368 178.074 157.749C176.813 158.407 174.367 159.417 173.25 159.94C172.555 160.265 172.587 161.136 173.305 161.632C174.024 162.128 175.752 162.485 177.828 162.003C178.959 161.738 180.433 160.649 181.369 160.71C182.305 160.77 184.043 160.751 184.733 160.246C185.423 159.741 185.145 158.694 184.951 157.79C184.738 156.799 184.487 155.255 184.158 155.325V155.672C183.755 156.312 181.665 156.571 180.775 156.103L180.757 155.566Z" fill="#263238"/>
<path d="M187.013 117.673C185.261 117.099 183.658 116.141 182.323 114.869C182.323 114.869 183.25 116.635 185.919 118.28L185.345 133.484L187.013 117.673Z" fill="#263238"/>
<path d="M194.427 86.189C194.427 86.189 197.208 86.8285 197.009 91.8518L196.429 99.8456V111.848C193.955 114.656 182.991 114.452 179.214 111.625C179.214 111.625 179.64 97.422 179.895 91.9538C180.076 88.0704 180.97 86.1149 184.789 85.6885L189.483 85.8924L194.427 86.189Z" fill="#1D1465"/>
<path d="M190.887 75.753C190.903 76.4256 190.786 77.0946 190.542 77.7216C190.298 78.3486 189.933 78.9211 189.467 79.4061C189 79.8912 188.443 80.2792 187.826 80.5478C187.209 80.8164 186.546 80.9602 185.873 80.971C183.093 80.971 181.461 78.5706 180.859 75.753C179.747 70.5953 183.102 70.5304 185.873 70.5304C187.23 70.5584 188.521 71.1243 189.461 72.1037C190.402 73.083 190.914 74.3957 190.887 75.753Z" fill="#263238"/>
<path d="M193.445 77.8615C193.445 77.8615 192.676 81.6244 192.365 82.2454C192.17 82.6191 191.838 82.903 191.439 83.0378L191.494 80.3918L193.445 77.8615Z" fill="#263238"/>
<path d="M192.477 72.4721C192.477 72.4721 193.028 72.3331 193.617 73.2506C194.117 74.0338 194.233 75.7948 193.445 77.8847L191.995 78.0608L192.477 72.4721Z" fill="#263238"/>
<path d="M193.009 73.2367L194.789 73.2692C194.801 73.1542 194.789 73.0379 194.754 72.9276C194.72 72.8174 194.662 72.7155 194.586 72.6285C194.51 72.5414 194.417 72.4711 194.312 72.4219C194.207 72.3726 194.094 72.3456 193.978 72.3424C193.735 72.3459 193.501 72.4391 193.323 72.6042C193.144 72.7692 193.032 72.9945 193.009 73.2367Z" fill="#263238"/>
<path d="M193.227 72.815L194.543 71.5499C194.468 71.4605 194.374 71.3878 194.269 71.3364C194.163 71.2849 194.048 71.2559 193.931 71.2511C193.814 71.2463 193.697 71.2659 193.588 71.3085C193.479 71.3512 193.38 71.416 193.297 71.499C193.122 71.6696 193.018 71.8997 193.005 72.1434C192.992 72.3872 193.072 72.6269 193.227 72.815Z" fill="#263238"/>
<path d="M191.559 78.0377C191.851 78.2184 192.263 77.6391 192.625 77.2452C192.986 76.8513 194.108 76.4899 194.692 77.7689C195.276 79.0479 194.279 80.313 193.445 80.7301C191.948 81.4715 191.476 80.3918 191.476 80.3918L191.35 86.3512C189.247 89.5951 184.473 89.4931 186.193 86.1936V84.3817C185.486 84.4993 184.767 84.5366 184.052 84.4929C182.884 84.3076 182.152 83.3483 181.795 82.0322C181.23 79.9191 181.012 78.2137 181.494 74.057C182.022 69.5063 187.11 69.4553 189.835 71.2765C192.56 73.0977 191.559 78.0377 191.559 78.0377Z" fill="#FFA8A7"/>
<path d="M185.22 73.348C186.434 73.2275 187.634 72.9772 188.853 72.8846C189.116 72.8527 189.382 72.8652 189.641 72.9216C190.567 73.1765 190.456 74.2609 190.604 75.0162C190.859 76.323 191.068 78.5335 191.559 78.5428C191.707 78.5428 192.263 77.5835 192.625 77.2406C192.824 76.9451 192.936 76.6001 192.949 76.2443C193.042 75.7067 193.088 75.1553 193.13 74.6084C193.167 74.145 193.213 73.6816 193.213 73.2182C193.235 72.6945 193.193 72.1702 193.088 71.6565C192.972 71.2195 192.749 70.8182 192.439 70.4887L192.347 70.3868C191.736 69.7482 190.995 69.2487 190.173 68.9224C188.992 68.4798 187.753 68.2097 186.494 68.1207C185.237 68.0317 183.986 67.877 182.745 67.6573C182.674 67.6366 182.598 67.6366 182.527 67.6573C182.477 67.6852 182.434 67.7252 182.404 67.7738C182.373 67.8224 182.355 67.878 182.351 67.9354C182.3 68.2233 182.332 68.5198 182.443 68.7904C182.553 69.0611 182.739 69.2948 182.977 69.4646C182.138 69.5295 181.174 69.0939 180.368 68.8714C180.302 68.8438 180.232 68.8295 180.161 68.8295C180.091 68.8295 180.02 68.8438 179.955 68.8714C179.874 68.928 179.817 69.012 179.793 69.1078C179.734 69.3255 179.726 69.5538 179.77 69.7751C179.844 70.4458 180.093 71.0851 180.493 71.6287C181.117 72.4419 182 73.0187 182.995 73.2645C183.728 73.4058 184.478 73.434 185.22 73.348Z" fill="#263238"/>
<path d="M186.197 84.3817C186.197 84.3817 188.802 83.8349 189.71 83.3298C190.251 83.0338 190.69 82.5816 190.971 82.0322C190.834 82.5842 190.59 83.1038 190.252 83.5615C189.59 84.4512 186.197 85.1 186.197 85.1V84.3817Z" fill="#F28F8F"/>
<path d="M186.823 77.3564C186.818 77.4995 186.87 77.6387 186.967 77.7438C187.064 77.8488 187.199 77.9111 187.342 77.9172C187.456 77.9265 187.569 77.9013 187.668 77.8449C187.767 77.7886 187.847 77.7036 187.897 77.6012C187.947 77.4987 187.964 77.3837 187.948 77.271C187.931 77.1583 187.881 77.0533 187.803 76.9697C187.726 76.8861 187.625 76.8278 187.514 76.8025C187.403 76.7772 187.287 76.786 187.181 76.8278C187.075 76.8696 186.984 76.9425 186.92 77.0368C186.856 77.1311 186.822 77.2425 186.823 77.3564Z" fill="#263238"/>
<path d="M187.657 75.1089L188.774 75.753C188.855 75.5942 188.874 75.4106 188.826 75.2389C188.777 75.0671 188.666 74.9197 188.514 74.8262C188.44 74.7847 188.358 74.759 188.274 74.7508C188.189 74.7426 188.104 74.7521 188.023 74.7787C187.943 74.8053 187.869 74.8484 187.806 74.9053C187.742 74.9621 187.692 75.0315 187.657 75.1089Z" fill="#263238"/>
<path d="M186.429 81.1147L185.238 81.5781C185.262 81.6598 185.303 81.7357 185.357 81.801C185.412 81.8664 185.479 81.9199 185.555 81.9581C185.631 81.9964 185.714 82.0186 185.799 82.0234C185.884 82.0281 185.969 82.0154 186.049 81.9859C186.211 81.9161 186.341 81.7872 186.411 81.6254C186.482 81.4636 186.488 81.281 186.429 81.1147Z" fill="#F28F8F"/>
<path d="M182.031 75.5862L183.051 74.7706C183.005 74.6994 182.945 74.6387 182.874 74.5923C182.804 74.5459 182.724 74.5149 182.64 74.5013C182.557 74.4878 182.471 74.4919 182.39 74.5136C182.308 74.5352 182.232 74.5739 182.166 74.627C182.03 74.7425 181.941 74.9041 181.916 75.081C181.891 75.2579 181.932 75.4377 182.031 75.5862Z" fill="#263238"/>
<path d="M182.481 77.2035C182.489 77.3049 182.526 77.4018 182.589 77.4822C182.651 77.5627 182.735 77.6233 182.831 77.6566C182.927 77.6899 183.031 77.6945 183.13 77.6698C183.229 77.6451 183.318 77.5923 183.387 77.5176C183.456 77.443 183.502 77.3499 183.519 77.2496C183.536 77.1493 183.524 77.0462 183.483 76.9529C183.442 76.8597 183.376 76.7802 183.291 76.7243C183.206 76.6684 183.106 76.6385 183.005 76.6382C182.933 76.6405 182.862 76.6571 182.797 76.6869C182.732 76.7166 182.673 76.759 182.625 76.8116C182.576 76.8642 182.538 76.9259 182.514 76.9932C182.489 77.0604 182.478 77.1319 182.481 77.2035Z" fill="#263238"/>
<path d="M185.275 76.7679L185.215 80.0627L183.343 79.6364L185.275 76.7679Z" fill="#F28F8F"/>
<path d="M140.816 104.364L143.721 102.686L144.871 101.291L141.97 102.969L140.816 104.364Z" fill="#1D1465"/>
<path opacity="0.4" d="M140.816 104.364L143.721 102.686L144.871 101.291L141.97 102.969L140.816 104.364Z" fill="black"/>
<path d="M148.717 108.924L151.622 107.246L154.046 105.101L151.145 106.774L148.717 108.924Z" fill="#1D1465"/>
<path opacity="0.4" d="M148.717 108.924L151.622 107.246L154.046 105.101L151.145 106.774L148.717 108.924Z" fill="black"/>
<path d="M173.398 114.712C174.085 115.633 174.501 116.727 174.598 117.872C173.914 116.95 173.499 115.856 173.398 114.712ZM180.15 114.8C179.172 108.15 175.599 101.574 171.345 99.1135C169.302 97.9318 167.411 97.8901 165.895 98.7752L163.161 100.351L163.008 100.443C162.887 100.51 162.769 100.585 162.656 100.666C162.432 100.82 162.221 100.994 162.026 101.185L161.933 101.273C161.85 101.356 161.762 101.454 161.683 101.546C161.604 101.639 161.484 101.783 161.391 101.908C161.194 102.167 161.016 102.439 160.858 102.723C160.775 102.867 160.696 103.02 160.622 103.187L136.742 89.4051L133.842 91.078V92.9316L134.087 93.0706L134.319 93.205V93.5757L133.855 93.8491V94.9242L137.363 102.339L140.83 104.345L141.984 102.955L145.042 104.786L146.798 107.793L148.735 108.91L151.159 106.76L154.134 108.479L155.135 112.608L160.135 115.5C160.382 116.55 160.692 117.586 161.062 118.6C161.095 118.702 161.136 118.808 161.178 118.924C162.837 123.28 165.474 127.011 168.449 128.73C168.805 128.941 169.179 129.123 169.566 129.272C169.77 129.353 169.979 129.423 170.191 129.481C170.377 129.53 170.562 129.572 170.747 129.606C171.333 129.712 171.932 129.712 172.518 129.606L172.759 129.545C172.874 129.522 172.987 129.49 173.097 129.448L173.356 129.346C173.448 129.313 173.537 129.271 173.621 129.221C173.706 129.184 173.79 129.142 173.871 129.096L173.991 129.022C174.013 129.015 174.033 129.004 174.051 128.989C174.714 128.609 176.345 127.664 176.79 127.414C178.996 126.135 180.423 122.9 180.423 118.326C180.42 117.146 180.328 115.967 180.15 114.8Z" fill="#1D1465"/>
<path d="M172.55 120.324C171.401 119.661 170.474 117.696 170.474 115.935C170.474 114.174 171.401 113.28 172.55 113.938C173.699 114.596 174.621 116.565 174.621 118.331C174.621 120.097 173.695 120.986 172.55 120.324ZM177.244 116.473C176.271 109.827 172.698 103.247 168.44 100.791C166.465 99.651 164.64 99.5676 163.157 100.351L163.004 100.443C162.882 100.51 162.764 100.585 162.652 100.666C162.427 100.82 162.216 100.994 162.021 101.185L161.929 101.273C161.845 101.356 161.757 101.454 161.678 101.546C161.6 101.639 161.479 101.783 161.387 101.908C161.19 102.167 161.012 102.439 160.854 102.723C160.77 102.867 160.691 103.02 160.617 103.187C160.185 104.083 159.874 105.031 159.69 106.009L133.837 91.078V92.9316L134.083 93.0706L134.314 93.205V93.5757L133.851 93.8491V94.9242L137.359 102.339L140.825 104.345L141.979 102.955L145.037 104.786L146.794 107.793L148.731 108.91L151.154 106.76L154.13 108.479L155.131 112.608L160.135 115.5C160.382 116.55 160.692 117.586 161.062 118.6C161.095 118.702 161.136 118.808 161.178 118.924C162.837 123.28 165.474 127.011 168.449 128.73C168.805 128.941 169.179 129.123 169.566 129.272C169.77 129.353 169.979 129.423 170.191 129.481C170.377 129.53 170.562 129.572 170.747 129.606C171.333 129.712 171.932 129.712 172.518 129.606L172.759 129.545C172.874 129.522 172.987 129.49 173.097 129.448L173.356 129.346C173.448 129.313 173.537 129.271 173.621 129.221C173.706 129.184 173.79 129.142 173.871 129.096L173.991 129.022C174.013 129.015 174.033 129.004 174.051 128.989C176.165 127.655 177.522 124.467 177.522 120.004C177.515 118.822 177.422 117.642 177.244 116.473Z" fill="#1D1465"/>
<path opacity="0.4" d="M174.621 118.326C174.621 120.092 173.695 120.986 172.55 120.324C171.405 119.661 170.474 117.701 170.474 115.935C170.474 114.17 171.401 113.275 172.55 113.938C172.881 114.139 173.169 114.404 173.398 114.716C173.498 115.861 173.913 116.955 174.598 117.877C174.615 118.026 174.623 118.176 174.621 118.326Z" fill="black"/>
<path opacity="0.4" d="M180.414 118.322C180.414 122.896 178.987 126.13 176.781 127.409C176.318 127.659 174.705 128.605 174.042 128.985C176.155 127.65 177.513 124.462 177.513 119.999C177.508 118.819 177.418 117.64 177.244 116.473C176.271 109.827 172.698 103.247 168.44 100.791C166.465 99.651 164.64 99.5676 163.157 100.351L165.891 98.7752C167.406 97.8901 169.297 97.9318 171.341 99.1135C175.599 101.574 179.172 108.15 180.145 114.8C180.322 115.966 180.412 117.143 180.414 118.322Z" fill="white"/>
<path d="M177.513 119.99C177.513 124.453 176.155 127.641 174.042 128.975C174.705 128.595 176.336 127.65 176.781 127.4C178.987 126.121 180.414 122.886 180.414 118.312C180.414 118.146 180.414 117.974 180.414 117.803L177.513 119.48C177.508 119.661 177.513 119.828 177.513 119.99Z" fill="#1D1465"/>
<path opacity="0.1" d="M177.513 119.99C177.513 124.453 176.155 127.641 174.042 128.975C174.705 128.595 176.336 127.65 176.781 127.4C178.987 126.121 180.414 122.886 180.414 118.312C180.414 118.146 180.414 117.974 180.414 117.803L177.513 119.48C177.508 119.661 177.513 119.828 177.513 119.99Z" fill="black"/>
<path opacity="0.15" d="M159.802 107.904V108.845L133.842 93.8584L134.319 93.5804V93.1911L159.802 107.904Z" fill="black"/>
<path opacity="0.15" d="M159.802 108.294V108.845L133.842 93.8584L134.319 93.5804V93.5757L159.802 108.294Z" fill="black"/>
<path opacity="0.15" d="M171.09 127.405C170.106 127.379 169.147 127.093 168.31 126.575C164.079 124.133 160.636 116.867 160.636 110.379C160.636 106.593 161.78 103.766 163.778 102.612C165.168 101.806 166.813 101.908 168.542 102.904C172.768 105.346 176.211 112.636 176.211 119.123C176.211 122.905 175.066 125.736 173.069 126.886C172.467 127.23 171.784 127.409 171.09 127.405ZM165.784 102.543C165.167 102.539 164.559 102.699 164.023 103.006C162.202 104.058 161.113 106.815 161.113 110.374C161.113 116.714 164.45 123.813 168.555 126.167C170.126 127.094 171.614 127.177 172.851 126.464C174.672 125.412 175.761 122.659 175.761 119.1C175.761 112.756 172.425 105.661 168.324 103.303C167.557 102.836 166.681 102.581 165.784 102.561V102.543Z" fill="black"/>
<path opacity="0.4" d="M160.599 103.178C160.167 104.073 159.855 105.022 159.672 106L133.818 91.0687L136.719 89.3958L160.599 103.178Z" fill="white"/>
<path d="M194.2 104.628C195.554 102.065 197.101 96.3098 197.871 93.4043C198.964 89.2799 197.194 86.6848 195.183 86.5783C193.927 86.7729 189.789 101.82 189.789 101.82C189.325 102.186 183.037 105.379 181.017 106.18C180.655 106.317 180.256 106.317 179.895 106.18C178.927 105.828 178.264 105.893 177.314 105.8C176.568 105.726 176.192 105.462 176.095 105.62C176.007 105.815 175.995 106.037 176.063 106.24C176.131 106.444 176.273 106.615 176.461 106.718C176.87 106.956 177.306 107.146 177.759 107.283C176.947 107.53 176.1 107.644 175.252 107.622C173.305 107.58 172.606 108.423 174.116 110.402C175.043 111.635 176.577 112.024 180.002 110.842C180.984 110.499 182.319 109.837 183.565 109.387C186.133 108.46 186.809 108.349 188.765 107.687C191.615 106.723 193.598 105.768 194.2 104.628Z" fill="#FFA8A7"/>
<path d="M194.427 86.189C195.609 86.3512 196.745 86.6153 197.444 87.5792C198.144 88.5431 198.705 89.8963 198.019 93.5804C197.494 96.1713 196.791 98.723 195.915 101.217C195.915 101.217 193.162 102.394 190.238 99.41L192.249 91.634C192.249 91.634 192.574 86.5783 194.427 86.189Z" fill="#455A64"/>
</svg>
