<svg width="159" height="76" viewBox="0 0 159 76" fill="none" xmlns="http://www.w3.org/2000/svg">
<path d="M28.688 59V27.472H34.288V59H28.688ZM42.8722 33.464C41.6402 33.5013 40.8189 33.2213 40.4082 32.624C40.0349 31.9893 39.8482 31.2427 39.8482 30.384C39.8482 29.5627 40.0535 28.8533 40.4642 28.256C40.8749 27.6587 41.6775 27.36 42.8722 27.36C44.0295 27.36 44.7949 27.6587 45.1682 28.256C45.5789 28.8533 45.7842 29.5627 45.7842 30.384C45.7842 31.2427 45.5789 31.9707 45.1682 32.568C44.7949 33.128 44.0295 33.4267 42.8722 33.464ZM39.9602 59V35.984H45.6722V59H39.9602ZM59.8419 59.56C56.4446 59.56 53.9806 58.5147 52.4499 56.424C50.9566 54.296 50.2099 51.4587 50.2099 47.912C50.2099 44.328 50.9566 41.4533 52.4499 39.288C53.9806 37.0853 56.4446 35.984 59.8419 35.984C61.2979 35.984 62.5113 36.2267 63.4819 36.712C64.4526 37.16 65.2179 37.7013 65.7779 38.336C66.3379 38.9707 66.7299 39.5493 66.9539 40.072C67.2153 40.5947 67.3646 40.912 67.4019 41.024H67.5139L68.4099 35.984H73.3939V69.248H67.5139V54.912H67.4019C67.3646 54.9867 67.1966 55.2667 66.8979 55.752C66.6366 56.2373 66.2073 56.7787 65.6099 57.376C65.0499 57.9733 64.2846 58.496 63.3139 58.944C62.3806 59.3547 61.2233 59.56 59.8419 59.56ZM61.5219 54.744C63.6126 54.744 65.1246 54.1093 66.0579 52.84C66.9913 51.5333 67.4579 49.872 67.4579 47.856C67.4579 45.9147 67.0099 44.3093 66.1139 43.04C65.2553 41.7333 63.7806 41.08 61.6899 41.08C60.1219 41.08 58.9086 41.416 58.0499 42.088C57.1913 42.7227 56.5753 43.5627 56.2019 44.608C55.8659 45.616 55.6979 46.6987 55.6979 47.856C55.6979 49.0133 55.8659 50.1333 56.2019 51.216C56.5379 52.2613 57.1166 53.12 57.9379 53.792C58.7966 54.4267 59.9913 54.744 61.5219 54.744ZM92.5004 59.56C91.0818 59.56 89.8871 59.3547 88.9164 58.944C87.9831 58.496 87.2178 57.9733 86.6204 57.376C86.0604 56.7787 85.6311 56.2373 85.3324 55.752C85.0711 55.2667 84.9218 54.9867 84.8844 54.912H84.7724V69.248H78.8924V35.984H83.8764L84.8284 41.024H84.9404C84.9778 40.912 85.1084 40.5947 85.3324 40.072C85.5938 39.5493 85.9858 38.9707 86.5084 38.336C87.0684 37.7013 87.8338 37.16 88.8044 36.712C89.7751 36.2267 90.9884 35.984 92.4444 35.984C95.8791 35.984 98.3431 37.0853 99.8364 39.288C101.33 41.4907 102.076 44.3653 102.076 47.912C102.076 51.4587 101.311 54.296 99.7804 56.424C98.2498 58.5147 95.8231 59.56 92.5004 59.56ZM90.7644 54.744C92.3324 54.744 93.5271 54.4267 94.3484 53.792C95.2071 53.12 95.7858 52.2613 96.0844 51.216C96.4204 50.1333 96.5884 49.0133 96.5884 47.856C96.5884 46.6987 96.4018 45.616 96.0284 44.608C95.6924 43.5627 95.0951 42.7227 94.2364 42.088C93.3778 41.416 92.1831 41.08 90.6524 41.08C88.5618 41.08 87.0684 41.7333 86.1724 43.04C85.2764 44.3093 84.8284 45.9147 84.8284 47.856C84.8284 49.872 85.2951 51.5333 86.2284 52.84C87.1618 54.1093 88.6738 54.744 90.7644 54.744ZM116.647 59.56C114.034 59.56 111.868 59.056 110.151 58.048C108.434 57.04 107.146 55.6587 106.287 53.904C105.428 52.112 104.999 50.0773 104.999 47.8C104.962 44.3653 105.914 41.5467 107.855 39.344C109.834 37.104 112.764 35.984 116.647 35.984C120.418 35.984 123.274 37.0667 125.215 39.232C127.194 41.3973 128.183 44.2533 128.183 47.8C128.183 50.0027 127.772 52 126.951 53.792C126.13 55.584 124.86 57.0027 123.143 58.048C121.426 59.056 119.26 59.56 116.647 59.56ZM116.647 54.744C118.29 54.744 119.54 54.3893 120.399 53.68C121.295 52.9707 121.892 52.0747 122.191 50.992C122.49 49.872 122.639 48.752 122.639 47.632C122.639 46.4747 122.49 45.336 122.191 44.216C121.892 43.096 121.295 42.1813 120.399 41.472C119.54 40.7627 118.29 40.408 116.647 40.408C114.967 40.408 113.679 40.7813 112.783 41.528C111.924 42.2373 111.327 43.152 110.991 44.272C110.692 45.3547 110.543 46.4747 110.543 47.632C110.543 48.752 110.692 49.872 110.991 50.992C111.327 52.0747 111.924 52.9707 112.783 53.68C113.679 54.3893 114.967 54.744 116.647 54.744ZM141.997 59.56C138.562 59.56 136.117 58.496 134.661 56.368C133.205 54.2027 132.477 51.384 132.477 47.912C132.477 44.2907 133.224 41.3973 134.717 39.232C136.21 37.0667 138.637 35.984 141.997 35.984C143.453 35.984 144.666 36.2267 145.637 36.712C146.645 37.16 147.429 37.7013 147.989 38.336C148.586 38.9707 149.016 39.5493 149.277 40.072C149.538 40.5947 149.688 40.912 149.725 41.024H149.837V27.472H155.717V59H150.789L149.837 54.912H149.725C149.688 54.9867 149.52 55.2667 149.221 55.752C148.96 56.2373 148.512 56.7787 147.877 57.376C147.28 57.9733 146.496 58.496 145.525 58.944C144.554 59.3547 143.378 59.56 141.997 59.56ZM143.845 54.744C145.973 54.744 147.485 54.1093 148.381 52.84C149.314 51.5333 149.781 49.872 149.781 47.856C149.781 45.9147 149.333 44.3093 148.437 43.04C147.578 41.7333 146.104 41.08 144.013 41.08C142.482 41.08 141.269 41.416 140.373 42.088C139.514 42.7227 138.917 43.5627 138.581 44.608C138.245 45.616 138.077 46.6987 138.077 47.856C138.077 49.0133 138.226 50.1333 138.525 51.216C138.861 52.2613 139.44 53.12 140.261 53.792C141.12 54.4267 142.314 54.744 143.845 54.744Z" fill="#1D1465"/>
<path d="M21.0631 51.6441C16.0879 59.8668 2.85561 56.646 2.75519 46.9987C2.88521 37.2622 16.1883 34.1236 21.1242 42.4573C21.2543 42.6847 21.2858 42.952 21.2118 43.2014C21.1379 43.4508 20.9644 43.6625 20.7288 43.7908C20.4932 43.9191 20.2144 43.9538 19.9523 43.8874C19.6902 43.8209 19.4659 43.6587 19.3277 43.4356C18.9738 42.8657 18.4747 42.1211 18.0639 41.7287C17.341 41.0356 16.482 40.4859 15.5362 40.1112C14.5904 39.7365 13.5765 39.5442 12.5528 39.5452C5.59965 39.5978 2.16431 47.5303 7.04168 52.2673C10.0189 55.1708 15.0867 55.1711 18.0637 52.2693C18.4649 51.8856 18.9416 51.1867 19.2837 50.6457C19.4247 50.4251 19.6507 50.2663 19.913 50.2034C20.1752 50.1404 20.4529 50.1785 20.6861 50.3094C20.9193 50.4402 21.0895 50.6534 21.16 50.903C21.2305 51.1526 21.1957 51.4188 21.0631 51.6441ZM12.5526 36.449C6.52791 36.395 1.46274 41.2392 1.52006 46.9996C1.48837 53.9421 8.52938 59.0472 15.5126 57.1647C18.2867 56.4366 20.7136 54.6219 22.1349 52.2312C22.8034 51.1504 22.298 49.6718 21.0913 49.1768C20.074 48.7265 18.7939 49.1099 18.227 50.0348C17.638 50.9668 17.3062 51.3239 17.1907 51.4342C16.5931 52.0078 15.8847 52.465 15.1048 52.7804C12.7103 53.7732 9.73934 53.226 7.91473 51.4342C4.62454 48.3003 5.72663 42.9439 10.0003 41.2189C11.5998 40.5643 13.5051 40.5643 15.1048 41.2189C15.8845 41.5342 16.5928 41.9911 17.1904 42.5644C17.3086 42.6772 17.6497 43.0468 18.2655 44.039C18.5494 44.4967 18.9994 44.8387 19.5298 44.9999C20.0602 45.1611 20.6341 45.1302 21.1423 44.9132C22.3362 44.4253 22.8528 42.9628 22.2048 41.8853C21.2502 40.2375 19.8515 38.8643 18.1541 37.9082C16.4567 36.9522 14.5225 36.4483 12.5526 36.449ZM12.5526 35.0007C17.0443 34.966 21.3798 37.4175 23.5268 41.1808C23.7802 41.6185 23.9358 42.1017 23.984 42.5998C24.0321 43.0979 23.9716 43.6002 23.8064 44.0748C23.0816 46.2093 20.4046 47.2027 18.3668 46.0878C17.7866 45.7767 17.3022 45.3251 16.9623 44.7782C16.3996 43.8714 16.1354 43.6052 16.1191 43.5891C12.9147 40.5681 7.54006 42.6968 7.50744 46.9993C7.54006 51.3025 12.9151 53.4305 16.1193 50.4098C16.1298 50.3995 16.3854 50.1471 16.9299 49.2857C17.2713 48.746 17.7543 48.3009 18.331 47.9946C21.7015 46.263 25.3037 49.7463 23.4492 52.9504C20.3779 58.1825 13.428 60.4321 7.66798 58.0526C1.33436 55.5407 -1.71373 48.3642 0.985096 42.339C2.85911 37.9609 7.59831 34.9457 12.5526 35.0007Z" fill="#1D1465"/>
</svg>
