<svg width="189" height="81" viewBox="0 0 189 81" fill="none" xmlns="http://www.w3.org/2000/svg">
<path d="M49.88 63V29.22H55.88V63H49.88ZM65.0773 35.64C63.7573 35.68 62.8773 35.38 62.4373 34.74C62.0373 34.06 61.8373 33.26 61.8373 32.34C61.8373 31.46 62.0573 30.7 62.4973 30.06C62.9373 29.42 63.7973 29.1 65.0773 29.1C66.3173 29.1 67.1373 29.42 67.5373 30.06C67.9773 30.7 68.1973 31.46 68.1973 32.34C68.1973 33.26 67.9773 34.04 67.5373 34.68C67.1373 35.28 66.3173 35.6 65.0773 35.64ZM61.9573 63V38.34H68.0773V63H61.9573ZM83.2592 63.6C79.6192 63.6 76.9792 62.48 75.3392 60.24C73.7392 57.96 72.9392 54.92 72.9392 51.12C72.9392 47.28 73.7392 44.2 75.3392 41.88C76.9792 39.52 79.6192 38.34 83.2592 38.34C84.8192 38.34 86.1192 38.6 87.1592 39.12C88.1992 39.6 89.0192 40.18 89.6192 40.86C90.2192 41.54 90.6392 42.16 90.8792 42.72C91.1592 43.28 91.3192 43.62 91.3592 43.74H91.4792L92.4392 38.34H97.7792V73.98H91.4792V58.62H91.3592C91.3192 58.7 91.1392 59 90.8192 59.52C90.5392 60.04 90.0792 60.62 89.4392 61.26C88.8392 61.9 88.0192 62.46 86.9792 62.94C85.9792 63.38 84.7392 63.6 83.2592 63.6ZM85.0592 58.44C87.2992 58.44 88.9192 57.76 89.9192 56.4C90.9192 55 91.4192 53.22 91.4192 51.06C91.4192 48.98 90.9392 47.26 89.9792 45.9C89.0592 44.5 87.4792 43.8 85.2392 43.8C83.5592 43.8 82.2592 44.16 81.3392 44.88C80.4192 45.56 79.7592 46.46 79.3592 47.58C78.9992 48.66 78.8192 49.82 78.8192 51.06C78.8192 52.3 78.9992 53.5 79.3592 54.66C79.7192 55.78 80.3392 56.7 81.2192 57.42C82.1392 58.1 83.4192 58.44 85.0592 58.44ZM118.25 63.6C116.73 63.6 115.45 63.38 114.41 62.94C113.41 62.46 112.59 61.9 111.95 61.26C111.35 60.62 110.89 60.04 110.57 59.52C110.29 59 110.13 58.7 110.09 58.62H109.97V73.98H103.67V38.34H109.01L110.03 43.74H110.15C110.19 43.62 110.33 43.28 110.57 42.72C110.85 42.16 111.27 41.54 111.83 40.86C112.43 40.18 113.25 39.6 114.29 39.12C115.33 38.6 116.63 38.34 118.19 38.34C121.87 38.34 124.51 39.52 126.11 41.88C127.71 44.24 128.51 47.32 128.51 51.12C128.51 54.92 127.69 57.96 126.05 60.24C124.41 62.48 121.81 63.6 118.25 63.6ZM116.39 58.44C118.07 58.44 119.35 58.1 120.23 57.42C121.15 56.7 121.77 55.78 122.09 54.66C122.45 53.5 122.63 52.3 122.63 51.06C122.63 49.82 122.43 48.66 122.03 47.58C121.67 46.46 121.03 45.56 120.11 44.88C119.19 44.16 117.91 43.8 116.27 43.8C114.03 43.8 112.43 44.5 111.47 45.9C110.51 47.26 110.03 48.98 110.03 51.06C110.03 53.22 110.53 55 111.53 56.4C112.53 57.76 114.15 58.44 116.39 58.44ZM144.122 63.6C141.322 63.6 139.002 63.06 137.162 61.98C135.322 60.9 133.942 59.42 133.022 57.54C132.102 55.62 131.642 53.44 131.642 51C131.602 47.32 132.622 44.3 134.702 41.94C136.822 39.54 139.962 38.34 144.122 38.34C148.162 38.34 151.222 39.5 153.302 41.82C155.422 44.14 156.482 47.2 156.482 51C156.482 53.36 156.042 55.5 155.162 57.42C154.282 59.34 152.922 60.86 151.082 61.98C149.242 63.06 146.922 63.6 144.122 63.6ZM144.122 58.44C145.882 58.44 147.222 58.06 148.142 57.3C149.102 56.54 149.742 55.58 150.062 54.42C150.382 53.22 150.542 52.02 150.542 50.82C150.542 49.58 150.382 48.36 150.062 47.16C149.742 45.96 149.102 44.98 148.142 44.22C147.222 43.46 145.882 43.08 144.122 43.08C142.322 43.08 140.942 43.48 139.982 44.28C139.062 45.04 138.422 46.02 138.062 47.22C137.742 48.38 137.582 49.58 137.582 50.82C137.582 52.02 137.742 53.22 138.062 54.42C138.422 55.58 139.062 56.54 139.982 57.3C140.942 58.06 142.322 58.44 144.122 58.44ZM171.283 63.6C167.603 63.6 164.983 62.46 163.423 60.18C161.863 57.86 161.083 54.84 161.083 51.12C161.083 47.24 161.883 44.14 163.483 41.82C165.083 39.5 167.683 38.34 171.283 38.34C172.843 38.34 174.143 38.6 175.183 39.12C176.263 39.6 177.103 40.18 177.703 40.86C178.343 41.54 178.803 42.16 179.083 42.72C179.363 43.28 179.523 43.62 179.563 43.74H179.683V29.22H185.983V63H180.703L179.683 58.62H179.563C179.523 58.7 179.343 59 179.023 59.52C178.743 60.04 178.263 60.62 177.583 61.26C176.943 61.9 176.103 62.46 175.063 62.94C174.023 63.38 172.763 63.6 171.283 63.6ZM173.263 58.44C175.543 58.44 177.163 57.76 178.123 56.4C179.123 55 179.623 53.22 179.623 51.06C179.623 48.98 179.143 47.26 178.183 45.9C177.263 44.5 175.683 43.8 173.443 43.8C171.803 43.8 170.503 44.16 169.543 44.88C168.623 45.56 167.983 46.46 167.623 47.58C167.263 48.66 167.083 49.82 167.083 51.06C167.083 52.3 167.243 53.5 167.563 54.66C167.923 55.78 168.543 56.7 169.423 57.42C170.343 58.1 171.623 58.44 173.263 58.44Z" fill="#1D1465"/>
<path d="M39.4933 55.2882C30.1648 71.7337 5.35428 65.292 5.16598 45.9973C5.40976 26.5244 30.3531 20.2471 39.6078 36.9146C39.8518 37.3694 39.9108 37.9039 39.7722 38.4028C39.6336 38.9017 39.3083 39.325 38.8666 39.5816C38.4248 39.8383 37.9019 39.9076 37.4105 39.7747C36.9191 39.6418 36.4986 39.3173 36.2395 38.8712C35.5759 37.7313 34.6401 36.2421 33.8699 35.4574C32.5144 34.0712 30.9037 32.9718 29.1303 32.2224C27.357 31.473 25.456 31.0883 23.5365 31.0905C10.4993 31.1957 4.05807 47.0605 13.2031 56.5345C18.7855 62.3417 28.2875 62.3421 33.8694 56.5386C34.6217 55.7712 35.5156 54.3734 36.1569 53.2914C36.4214 52.8502 36.845 52.5325 37.3368 52.4067C37.8286 52.2809 38.3491 52.357 38.7864 52.6187C39.2237 52.8804 39.5428 53.3068 39.675 53.806C39.8072 54.3053 39.742 54.8375 39.4933 55.2882ZM23.5361 24.8979C12.2398 24.7901 2.74265 34.4784 2.85012 45.9991C2.7907 59.8842 15.9926 70.0943 29.0861 66.3294C34.2875 64.8732 38.838 61.2437 41.5029 56.4624C42.7563 54.3007 41.8088 51.3437 39.5462 50.3536C37.6388 49.453 35.2386 50.2199 34.1757 52.0696C33.0713 53.9335 32.4492 54.6479 32.2325 54.8684C31.112 56.0156 29.7838 56.93 28.3216 57.5608C23.8318 59.5464 18.2613 58.452 14.8401 54.8684C8.67102 48.6005 10.7374 37.8878 18.7506 34.4379C21.7497 33.1287 25.322 33.1287 28.3216 34.4379C29.7835 35.0683 31.1116 35.9822 32.232 37.1289C32.4535 37.3544 33.0931 38.0936 34.2478 40.0779C34.7802 40.9934 35.6239 41.6773 36.6184 41.9997C37.613 42.3221 38.689 42.2604 39.6419 41.8265C41.8804 40.8506 42.8489 37.9256 41.634 35.7707C39.8441 32.4751 37.2216 29.7285 34.039 27.8165C30.8563 25.9045 27.2297 24.8967 23.5361 24.8979ZM23.5361 22.0015C31.9581 21.932 40.087 26.835 44.1128 34.3617C44.5878 35.237 44.8797 36.2033 44.9699 37.1996C45.0602 38.1958 44.9468 39.2003 44.6371 40.1496C43.278 44.4185 38.2587 46.4055 34.4378 44.1757C33.3498 43.5535 32.4416 42.6501 31.8043 41.5564C30.7493 39.7428 30.2539 39.2103 30.2233 39.1782C24.215 33.1363 14.1376 37.3936 14.0765 45.9987C14.1376 54.6051 24.2159 58.861 30.2237 52.8195C30.2434 52.799 30.7226 52.2942 31.7436 50.5715C32.3837 49.4919 33.2892 48.6017 34.3705 47.9892C40.6904 44.5259 47.4444 51.4925 43.9673 57.9008C38.2085 68.3649 25.1774 72.8642 14.3775 68.1051C2.50193 63.0814 -3.21325 48.7284 1.84706 36.6779C5.36083 27.9218 14.2468 21.8914 23.5361 22.0015Z" fill="#1D1465"/>
</svg>
