<svg width="167" height="45" viewBox="0 0 167 45" fill="none" xmlns="http://www.w3.org/2000/svg">
<path d="M13.1 34.6C10.78 34.6 8.68 34.14 6.8 33.22C4.92 32.26 3.42 30.86 2.3 29.02C1.18 27.14 0.62 24.86 0.62 22.18C0.7 19.5 1.28 17.2 2.36 15.28C3.48 13.36 4.96 11.88 6.8 10.84C8.68 9.8 10.82 9.28 13.22 9.28C15.66 9.28 17.74 9.76 19.46 10.72C21.22 11.64 22.58 12.86 23.54 14.38C24.5 15.86 25.04 17.4 25.16 19H19.52C18.92 16.04 16.88 14.56 13.4 14.56C11.24 14.56 9.56 15.22 8.36 16.54C7.2 17.86 6.62 19.58 6.62 21.7C6.62 24.02 7.18 25.88 8.3 27.28C9.46 28.64 11.16 29.32 13.4 29.32C14.92 29.32 16.24 28.92 17.36 28.12C18.52 27.32 19.24 26.14 19.52 24.58H25.16C25.04 26.3 24.48 27.92 23.48 29.44C22.52 30.96 21.16 32.2 19.4 33.16C17.68 34.12 15.58 34.6 13.1 34.6ZM30.005 34V0.219999H36.005V34H30.005ZM45.2023 6.64C43.8823 6.68 43.0023 6.38 42.5623 5.74C42.1623 5.06 41.9623 4.26 41.9623 3.34C41.9623 2.46 42.1823 1.7 42.6223 1.06C43.0623 0.42 43.9223 0.1 45.2023 0.1C46.4423 0.1 47.2623 0.42 47.6623 1.06C48.1023 1.7 48.3223 2.46 48.3223 3.34C48.3223 4.26 48.1023 5.04 47.6623 5.68C47.2623 6.28 46.4423 6.6 45.2023 6.64ZM42.0823 34V9.34H48.2023V34H42.0823ZM63.3842 34.6C59.7442 34.6 57.1042 33.48 55.4642 31.24C53.8642 28.96 53.0642 25.92 53.0642 22.12C53.0642 18.28 53.8642 15.2 55.4642 12.88C57.1042 10.52 59.7442 9.34 63.3842 9.34C64.9442 9.34 66.2442 9.6 67.2842 10.12C68.3242 10.6 69.1442 11.18 69.7442 11.86C70.3442 12.54 70.7642 13.16 71.0042 13.72C71.2842 14.28 71.4442 14.62 71.4842 14.74H71.6042L72.5642 9.34H77.9042V44.98H71.6042V29.62H71.4842C71.4442 29.7 71.2642 30 70.9442 30.52C70.6642 31.04 70.2042 31.62 69.5642 32.26C68.9642 32.9 68.1442 33.46 67.1042 33.94C66.1042 34.38 64.8642 34.6 63.3842 34.6ZM65.1842 29.44C67.4242 29.44 69.0442 28.76 70.0442 27.4C71.0442 26 71.5442 24.22 71.5442 22.06C71.5442 19.98 71.0642 18.26 70.1042 16.9C69.1842 15.5 67.6042 14.8 65.3642 14.8C63.6842 14.8 62.3842 15.16 61.4642 15.88C60.5442 16.56 59.8842 17.46 59.4842 18.58C59.1242 19.66 58.9442 20.82 58.9442 22.06C58.9442 23.3 59.1242 24.5 59.4842 25.66C59.8442 26.78 60.4642 27.7 61.3442 28.42C62.2642 29.1 63.5442 29.44 65.1842 29.44ZM98.3755 34.6C96.8555 34.6 95.5755 34.38 94.5355 33.94C93.5355 33.46 92.7155 32.9 92.0755 32.26C91.4755 31.62 91.0155 31.04 90.6955 30.52C90.4155 30 90.2555 29.7 90.2155 29.62H90.0955V44.98H83.7955V9.34H89.1355L90.1555 14.74H90.2755C90.3155 14.62 90.4555 14.28 90.6955 13.72C90.9755 13.16 91.3955 12.54 91.9555 11.86C92.5555 11.18 93.3755 10.6 94.4155 10.12C95.4555 9.6 96.7555 9.34 98.3155 9.34C101.995 9.34 104.635 10.52 106.235 12.88C107.835 15.24 108.635 18.32 108.635 22.12C108.635 25.92 107.815 28.96 106.175 31.24C104.535 33.48 101.935 34.6 98.3755 34.6ZM96.5155 29.44C98.1955 29.44 99.4755 29.1 100.355 28.42C101.275 27.7 101.895 26.78 102.215 25.66C102.575 24.5 102.755 23.3 102.755 22.06C102.755 20.82 102.555 19.66 102.155 18.58C101.795 17.46 101.155 16.56 100.235 15.88C99.3155 15.16 98.0355 14.8 96.3955 14.8C94.1555 14.8 92.5555 15.5 91.5955 16.9C90.6355 18.26 90.1555 19.98 90.1555 22.06C90.1555 24.22 90.6555 26 91.6555 27.4C92.6555 28.76 94.2755 29.44 96.5155 29.44ZM124.247 34.6C121.447 34.6 119.127 34.06 117.287 32.98C115.447 31.9 114.067 30.42 113.147 28.54C112.227 26.62 111.767 24.44 111.767 22C111.727 18.32 112.747 15.3 114.827 12.94C116.947 10.54 120.087 9.34 124.247 9.34C128.287 9.34 131.347 10.5 133.427 12.82C135.547 15.14 136.607 18.2 136.607 22C136.607 24.36 136.167 26.5 135.287 28.42C134.407 30.34 133.047 31.86 131.207 32.98C129.367 34.06 127.047 34.6 124.247 34.6ZM124.247 29.44C126.007 29.44 127.347 29.06 128.267 28.3C129.227 27.54 129.867 26.58 130.187 25.42C130.507 24.22 130.667 23.02 130.667 21.82C130.667 20.58 130.507 19.36 130.187 18.16C129.867 16.96 129.227 15.98 128.267 15.22C127.347 14.46 126.007 14.08 124.247 14.08C122.447 14.08 121.067 14.48 120.107 15.28C119.187 16.04 118.547 17.02 118.187 18.22C117.867 19.38 117.707 20.58 117.707 21.82C117.707 23.02 117.867 24.22 118.187 25.42C118.547 26.58 119.187 27.54 120.107 28.3C121.067 29.06 122.447 29.44 124.247 29.44ZM151.408 34.6C147.728 34.6 145.108 33.46 143.548 31.18C141.988 28.86 141.208 25.84 141.208 22.12C141.208 18.24 142.008 15.14 143.608 12.82C145.208 10.5 147.808 9.34 151.408 9.34C152.968 9.34 154.268 9.6 155.308 10.12C156.388 10.6 157.228 11.18 157.828 11.86C158.468 12.54 158.928 13.16 159.208 13.72C159.488 14.28 159.648 14.62 159.688 14.74H159.808V0.219999H166.108V34H160.828L159.808 29.62H159.688C159.648 29.7 159.468 30 159.148 30.52C158.868 31.04 158.388 31.62 157.708 32.26C157.068 32.9 156.228 33.46 155.188 33.94C154.148 34.38 152.888 34.6 151.408 34.6ZM153.388 29.44C155.668 29.44 157.288 28.76 158.248 27.4C159.248 26 159.748 24.22 159.748 22.06C159.748 19.98 159.268 18.26 158.308 16.9C157.388 15.5 155.808 14.8 153.568 14.8C151.928 14.8 150.628 15.16 149.668 15.88C148.748 16.56 148.108 17.46 147.748 18.58C147.388 19.66 147.208 20.82 147.208 22.06C147.208 23.3 147.368 24.5 147.688 25.66C148.048 26.78 148.668 27.7 149.548 28.42C150.468 29.1 151.748 29.44 153.388 29.44Z" fill="#1D1465"/>
</svg>
